<svg width="82" height="33" viewBox="0 0 82 33" fill="none" xmlns="http://www.w3.org/2000/svg">
<rect x="4" y="4" width="74" height="25" rx="12.5" fill="url(#paint0_linear_1051_10599)"/>
<rect x="2" y="2" width="78" height="29" rx="14.5" stroke="url(#paint1_angular_1051_10599)" stroke-opacity="0.6" stroke-width="4"/>
<path d="M14.833 10.965V20H13.351V10.965H14.833ZM15.8947 16.412C15.8947 15.6753 16.0421 15.0297 16.3367 14.475C16.6401 13.9117 17.0561 13.4783 17.5847 13.175C18.1134 12.8717 18.7201 12.72 19.4047 12.72C20.2714 12.72 20.9864 12.928 21.5497 13.344C22.1217 13.7513 22.5074 14.3363 22.7067 15.099H21.1077C20.9777 14.7437 20.7697 14.4663 20.4837 14.267C20.1977 14.0677 19.8381 13.968 19.4047 13.968C18.7981 13.968 18.3127 14.1847 17.9487 14.618C17.5934 15.0427 17.4157 15.6407 17.4157 16.412C17.4157 17.1833 17.5934 17.7857 17.9487 18.219C18.3127 18.6523 18.7981 18.869 19.4047 18.869C20.2627 18.869 20.8304 18.492 21.1077 17.738H22.7067C22.4987 18.466 22.1087 19.0467 21.5367 19.48C20.9647 19.9047 20.2541 20.117 19.4047 20.117C18.7201 20.117 18.1134 19.9653 17.5847 19.662C17.0561 19.35 16.6401 18.9167 16.3367 18.362C16.0421 17.7987 15.8947 17.1487 15.8947 16.412ZM30.3587 16.243C30.3587 16.5117 30.3413 16.7543 30.3067 16.971H24.8337C24.877 17.543 25.0893 18.0023 25.4707 18.349C25.852 18.6957 26.32 18.869 26.8747 18.869C27.672 18.869 28.2353 18.5353 28.5647 17.868H30.1637C29.947 18.5267 29.5527 19.0683 28.9807 19.493C28.4173 19.909 27.7153 20.117 26.8747 20.117C26.19 20.117 25.5747 19.9653 25.0287 19.662C24.4913 19.35 24.0667 18.9167 23.7547 18.362C23.4513 17.7987 23.2997 17.1487 23.2997 16.412C23.2997 15.6753 23.447 15.0297 23.7417 14.475C24.045 13.9117 24.4653 13.4783 25.0027 13.175C25.5487 12.8717 26.1727 12.72 26.8747 12.72C27.5507 12.72 28.153 12.8673 28.6817 13.162C29.2103 13.4567 29.622 13.8727 29.9167 14.41C30.2113 14.9387 30.3587 15.5497 30.3587 16.243ZM28.8117 15.775C28.803 15.229 28.608 14.7913 28.2267 14.462C27.8453 14.1327 27.373 13.968 26.8097 13.968C26.2983 13.968 25.8607 14.1327 25.4967 14.462C25.1327 14.7827 24.916 15.2203 24.8467 15.775H28.8117ZM32.9091 13.903C33.1604 13.5563 33.5028 13.2747 33.9361 13.058C34.3781 12.8327 34.8678 12.72 35.4051 12.72C36.0378 12.72 36.6098 12.8717 37.1211 13.175C37.6324 13.4783 38.0354 13.9117 38.3301 14.475C38.6248 15.0297 38.7721 15.6667 38.7721 16.386C38.7721 17.1053 38.6248 17.751 38.3301 18.323C38.0354 18.8863 37.6281 19.3283 37.1081 19.649C36.5968 19.961 36.0291 20.117 35.4051 20.117C34.8504 20.117 34.3564 20.0087 33.9231 19.792C33.4984 19.5753 33.1604 19.298 32.9091 18.96V20H31.4271V10.38H32.9091V13.903ZM37.2641 16.386C37.2641 15.892 37.1601 15.4673 36.9521 15.112C36.7528 14.748 36.4841 14.475 36.1461 14.293C35.8168 14.1023 35.4614 14.007 35.0801 14.007C34.7074 14.007 34.3521 14.1023 34.0141 14.293C33.6848 14.4837 33.4161 14.761 33.2081 15.125C33.0088 15.489 32.9091 15.918 32.9091 16.412C32.9091 16.906 33.0088 17.3393 33.2081 17.712C33.4161 18.076 33.6848 18.3533 34.0141 18.544C34.3521 18.7347 34.7074 18.83 35.0801 18.83C35.4614 18.83 35.8168 18.7347 36.1461 18.544C36.4841 18.3447 36.7528 18.0587 36.9521 17.686C37.1601 17.3133 37.2641 16.88 37.2641 16.386ZM41.3296 13.877C41.5463 13.513 41.8323 13.2313 42.1876 13.032C42.5516 12.824 42.9806 12.72 43.4746 12.72V14.254H43.0976C42.517 14.254 42.075 14.4013 41.7716 14.696C41.477 14.9907 41.3296 15.502 41.3296 16.23V20H39.8476V12.837H41.3296V13.877ZM51.0119 16.243C51.0119 16.5117 50.9946 16.7543 50.9599 16.971H45.4869C45.5302 17.543 45.7426 18.0023 46.1239 18.349C46.5052 18.6957 46.9732 18.869 47.5279 18.869C48.3252 18.869 48.8886 18.5353 49.2179 17.868H50.8169C50.6002 18.5267 50.2059 19.0683 49.6339 19.493C49.0706 19.909 48.3686 20.117 47.5279 20.117C46.8432 20.117 46.2279 19.9653 45.6819 19.662C45.1446 19.35 44.7199 18.9167 44.4079 18.362C44.1046 17.7987 43.9529 17.1487 43.9529 16.412C43.9529 15.6753 44.1002 15.0297 44.3949 14.475C44.6982 13.9117 45.1186 13.4783 45.6559 13.175C46.2019 12.8717 46.8259 12.72 47.5279 12.72C48.2039 12.72 48.8062 12.8673 49.3349 13.162C49.8636 13.4567 50.2752 13.8727 50.5699 14.41C50.8646 14.9387 51.0119 15.5497 51.0119 16.243ZM49.4649 15.775C49.4562 15.229 49.2612 14.7913 48.8799 14.462C48.4986 14.1327 48.0262 13.968 47.4629 13.968C46.9516 13.968 46.5139 14.1327 46.1499 14.462C45.7859 14.7827 45.5692 15.2203 45.4999 15.775H49.4649ZM53.5623 10.38V20H52.0803V10.38H53.5623ZM56.6001 10.38V20H55.1181V10.38H56.6001ZM57.6618 16.386C57.6618 15.6667 57.8091 15.0297 58.1038 14.475C58.4071 13.9203 58.8145 13.4913 59.3258 13.188C59.8458 12.876 60.4178 12.72 61.0418 12.72C61.6051 12.72 62.0948 12.8327 62.5108 13.058C62.9355 13.2747 63.2735 13.5477 63.5248 13.877V12.837H65.0198V20H63.5248V18.934C63.2735 19.272 62.9311 19.5537 62.4978 19.779C62.0645 20.0043 61.5705 20.117 61.0158 20.117C60.4005 20.117 59.8371 19.961 59.3258 19.649C58.8145 19.3283 58.4071 18.8863 58.1038 18.323C57.8091 17.751 57.6618 17.1053 57.6618 16.386ZM63.5248 16.412C63.5248 15.918 63.4208 15.489 63.2128 15.125C63.0135 14.761 62.7491 14.4837 62.4198 14.293C62.0905 14.1023 61.7351 14.007 61.3538 14.007C60.9725 14.007 60.6171 14.1023 60.2878 14.293C59.9585 14.475 59.6898 14.748 59.4818 15.112C59.2825 15.4673 59.1828 15.892 59.1828 16.386C59.1828 16.88 59.2825 17.3133 59.4818 17.686C59.6898 18.0587 59.9585 18.3447 60.2878 18.544C60.6258 18.7347 60.9811 18.83 61.3538 18.83C61.7351 18.83 62.0905 18.7347 62.4198 18.544C62.7491 18.3533 63.0135 18.076 63.2128 17.712C63.4208 17.3393 63.5248 16.906 63.5248 16.412Z" fill="white"/>
<path d="M40.4645 27.063C40.2785 27.063 40.1225 27 39.9965 26.874C39.8705 26.748 39.8075 26.592 39.8075 26.406C39.8075 26.22 39.8705 26.064 39.9965 25.938C40.1225 25.812 40.2785 25.749 40.4645 25.749C40.6445 25.749 40.7975 25.812 40.9235 25.938C41.0495 26.064 41.1125 26.22 41.1125 26.406C41.1125 26.592 41.0495 26.748 40.9235 26.874C40.7975 27 40.6445 27.063 40.4645 27.063ZM44.5164 21.96C44.8944 21.96 45.2304 22.041 45.5244 22.203C45.8244 22.365 46.0584 22.605 46.2264 22.923C46.4004 23.241 46.4874 23.625 46.4874 24.075V27H45.4704V24.228C45.4704 23.784 45.3594 23.445 45.1374 23.211C44.9154 22.971 44.6124 22.851 44.2284 22.851C43.8444 22.851 43.5384 22.971 43.3104 23.211C43.0884 23.445 42.9774 23.784 42.9774 24.228V27H41.9514V20.34H42.9774V22.617C43.1514 22.407 43.3704 22.245 43.6344 22.131C43.9044 22.017 44.1984 21.96 44.5164 21.96ZM52.0711 24.399C52.0711 24.585 52.0591 24.753 52.0351 24.903H48.2461C48.2761 25.299 48.4231 25.617 48.6871 25.857C48.9511 26.097 49.2751 26.217 49.6591 26.217C50.2111 26.217 50.6011 25.986 50.8291 25.524H51.9361C51.7861 25.98 51.5131 26.355 51.1171 26.649C50.7271 26.937 50.2411 27.081 49.6591 27.081C49.1851 27.081 48.7591 26.976 48.3811 26.766C48.0091 26.55 47.7151 26.25 47.4991 25.866C47.2891 25.476 47.1841 25.026 47.1841 24.516C47.1841 24.006 47.2861 23.559 47.4901 23.175C47.7001 22.785 47.9911 22.485 48.3631 22.275C48.7411 22.065 49.1731 21.96 49.6591 21.96C50.1271 21.96 50.5441 22.062 50.9101 22.266C51.2761 22.47 51.5611 22.758 51.7651 23.13C51.9691 23.496 52.0711 23.919 52.0711 24.399ZM51.0001 24.075C50.9941 23.697 50.8591 23.394 50.5951 23.166C50.3311 22.938 50.0041 22.824 49.6141 22.824C49.2601 22.824 48.9571 22.938 48.7051 23.166C48.4531 23.388 48.3031 23.691 48.2551 24.075H51.0001ZM52.4688 24.498C52.4688 24 52.5708 23.559 52.7748 23.175C52.9848 22.791 53.2668 22.494 53.6208 22.284C53.9808 22.068 54.3768 21.96 54.8088 21.96C55.1988 21.96 55.5378 22.038 55.8258 22.194C56.1198 22.344 56.3538 22.533 56.5278 22.761V22.041H57.5628V27H56.5278V26.262C56.3538 26.496 56.1168 26.691 55.8168 26.847C55.5168 27.003 55.1748 27.081 54.7908 27.081C54.3648 27.081 53.9748 26.973 53.6208 26.757C53.2668 26.535 52.9848 26.229 52.7748 25.839C52.5708 25.443 52.4688 24.996 52.4688 24.498ZM56.5278 24.516C56.5278 24.174 56.4558 23.877 56.3118 23.625C56.1738 23.373 55.9908 23.181 55.7628 23.049C55.5348 22.917 55.2888 22.851 55.0248 22.851C54.7608 22.851 54.5148 22.917 54.2868 23.049C54.0588 23.175 53.8728 23.364 53.7288 23.616C53.5908 23.862 53.5218 24.156 53.5218 24.498C53.5218 24.84 53.5908 25.14 53.7288 25.398C53.8728 25.656 54.0588 25.854 54.2868 25.992C54.5208 26.124 54.7668 26.19 55.0248 26.19C55.2888 26.19 55.5348 26.124 55.7628 25.992C55.9908 25.86 56.1738 25.668 56.3118 25.416C56.4558 25.158 56.5278 24.858 56.5278 24.516ZM59.6664 20.34V27H58.6404V20.34H59.6664ZM61.9405 22.878V25.623C61.9405 25.809 61.9825 25.944 62.0665 26.028C62.1565 26.106 62.3065 26.145 62.5165 26.145H63.1465V27H62.3365C61.8745 27 61.5205 26.892 61.2745 26.676C61.0285 26.46 60.9055 26.109 60.9055 25.623V22.878H60.3205V22.041H60.9055V20.808H61.9405V22.041H63.1465V22.878H61.9405ZM66.3871 21.96C66.7651 21.96 67.1011 22.041 67.3951 22.203C67.6951 22.365 67.9291 22.605 68.0971 22.923C68.2711 23.241 68.3581 23.625 68.3581 24.075V27H67.3411V24.228C67.3411 23.784 67.2301 23.445 67.0081 23.211C66.7861 22.971 66.4831 22.851 66.0991 22.851C65.7151 22.851 65.4091 22.971 65.1811 23.211C64.9591 23.445 64.8481 23.784 64.8481 24.228V27H63.8221V20.34H64.8481V22.617C65.0221 22.407 65.2411 22.245 65.5051 22.131C65.7751 22.017 66.0691 21.96 66.3871 21.96Z" fill="#FEBDD3"/>
<defs>
<linearGradient id="paint0_linear_1051_10599" x1="5.59428" y1="4.67873" x2="19.3618" y2="50.2987" gradientUnits="userSpaceOnUse">
<stop stop-color="#1B1F2C"/>
<stop offset="0.520833" stop-color="#23283A"/>
<stop offset="0.973958" stop-color="#323A53"/>
</linearGradient>
<radialGradient id="paint1_angular_1051_10599" cx="0" cy="0" r="1" gradientUnits="userSpaceOnUse" gradientTransform="translate(41.2517 14.3741) rotate(-15.7645) scale(38.1846 14.4818)">
<stop offset="0.192708" stop-color="#FEBDD3"/>
<stop offset="0.276042" stop-color="#FECFDF"/>
<stop offset="0.458333" stop-color="#A769FE"/>
<stop offset="0.697917" stop-color="#57C5F3"/>
<stop offset="1" stop-color="#2CBDFB"/>
</radialGradient>
</defs>
</svg>
