<svg width="30" height="30" viewBox="0 0 30 30" fill="none" xmlns="http://www.w3.org/2000/svg">
<path d="M15.5 7C15.1685 7 14.8505 7.1317 14.6161 7.36612C14.3817 7.60054 14.25 7.91848 14.25 8.25V20.75C14.25 21.0815 14.3817 21.3995 14.6161 21.6339C14.8505 21.8683 15.1685 22 15.5 22C15.8315 22 16.1495 21.8683 16.3839 21.6339C16.6183 21.3995 16.75 21.0815 16.75 20.75V8.25C16.75 7.91848 16.6183 7.60054 16.3839 7.36612C16.1495 7.1317 15.8315 7 15.5 7ZM9.25 14.5C8.91848 14.5 8.60054 14.6317 8.36612 14.8661C8.1317 15.1005 8 15.4185 8 15.75V20.75C8 21.0815 8.1317 21.3995 8.36612 21.6339C8.60054 21.8683 8.91848 22 9.25 22C9.58152 22 9.89946 21.8683 10.1339 21.6339C10.3683 21.3995 10.5 21.0815 10.5 20.75V15.75C10.5 15.4185 10.3683 15.1005 10.1339 14.8661C9.89946 14.6317 9.58152 14.5 9.25 14.5ZM21.75 12C21.4185 12 21.1005 12.1317 20.8661 12.3661C20.6317 12.6005 20.5 12.9185 20.5 13.25V20.75C20.5 21.0815 20.6317 21.3995 20.8661 21.6339C21.1005 21.8683 21.4185 22 21.75 22C22.0815 22 22.3995 21.8683 22.6339 21.6339C22.8683 21.3995 23 21.0815 23 20.75V13.25C23 12.9185 22.8683 12.6005 22.6339 12.3661C22.3995 12.1317 22.0815 12 21.75 12ZM24.25 2H6.75C5.75544 2 4.80161 2.39509 4.09835 3.09835C3.39509 3.80161 3 4.75544 3 5.75V23.25C3 24.2446 3.39509 25.1984 4.09835 25.9017C4.80161 26.6049 5.75544 27 6.75 27H24.25C25.2446 27 26.1984 26.6049 26.9017 25.9017C27.6049 25.1984 28 24.2446 28 23.25V5.75C28 4.75544 27.6049 3.80161 26.9017 3.09835C26.1984 2.39509 25.2446 2 24.25 2ZM25.5 23.25C25.5 23.5815 25.3683 23.8995 25.1339 24.1339C24.8995 24.3683 24.5815 24.5 24.25 24.5H6.75C6.41848 24.5 6.10054 24.3683 5.86612 24.1339C5.6317 23.8995 5.5 23.5815 5.5 23.25V5.75C5.5 5.41848 5.6317 5.10054 5.86612 4.86612C6.10054 4.6317 6.41848 4.5 6.75 4.5H24.25C24.5815 4.5 24.8995 4.6317 25.1339 4.86612C25.3683 5.10054 25.5 5.41848 25.5 5.75V23.25Z" fill="#C4C4C4"/>
</svg>
