<svg width="250" height="271" viewBox="0 0 250 271" fill="none" xmlns="http://www.w3.org/2000/svg">
<path d="M177.083 45.1667H164.792C162.643 38.5775 158.666 32.8701 153.407 28.827C148.148 24.7839 141.864 22.603 135.417 22.5834H114.583C108.136 22.603 101.852 24.7839 96.5932 28.827C91.3341 32.8701 87.3575 38.5775 85.2084 45.1667H72.9167C64.6287 45.1667 56.6802 48.7357 50.8197 55.0885C44.9592 61.4413 41.6667 70.0575 41.6667 79.0417V214.542C41.6667 223.526 44.9592 232.142 50.8197 238.495C56.6802 244.848 64.6287 248.417 72.9167 248.417H177.083C185.371 248.417 193.32 244.848 199.181 238.495C205.041 232.142 208.333 223.526 208.333 214.542V79.0417C208.333 70.0575 205.041 61.4413 199.181 55.0885C193.32 48.7357 185.371 45.1667 177.083 45.1667ZM104.167 56.4584C104.167 53.4636 105.264 50.5916 107.218 48.474C109.171 46.3564 111.821 45.1667 114.583 45.1667H135.417C138.179 45.1667 140.829 46.3564 142.782 48.474C144.736 50.5916 145.833 53.4636 145.833 56.4584V67.75H104.167V56.4584ZM187.5 214.542C187.5 217.536 186.403 220.409 184.449 222.526C182.496 224.644 179.846 225.833 177.083 225.833H72.9167C70.1541 225.833 67.5046 224.644 65.5511 222.526C63.5976 220.409 62.5001 217.536 62.5001 214.542V79.0417C62.5001 76.047 63.5976 73.1749 65.5511 71.0573C67.5046 68.9397 70.1541 67.75 72.9167 67.75H83.3334V79.0417C83.3334 82.0364 84.4309 84.9085 86.3844 87.0261C88.3379 89.1437 90.9874 90.3334 93.7501 90.3334H156.25C159.013 90.3334 161.662 89.1437 163.616 87.0261C165.569 84.9085 166.667 82.0364 166.667 79.0417V67.75H177.083C179.846 67.75 182.496 68.9397 184.449 71.0573C186.403 73.1749 187.5 76.047 187.5 79.0417V214.542Z" fill="#DEE7EA"/>
</svg>
