<svg width="30" height="30" viewBox="0 0 30 30" fill="none" xmlns="http://www.w3.org/2000/svg">
<path d="M17.5001 13.75H16.2501V12.5C16.2501 12.1685 16.1184 11.8505 15.884 11.6161C15.6496 11.3817 15.3316 11.25 15.0001 11.25C14.6686 11.25 14.3506 11.3817 14.1162 11.6161C13.8818 11.8505 13.7501 12.1685 13.7501 12.5V13.75H12.5001C12.1686 13.75 11.8506 13.8817 11.6162 14.1161C11.3818 14.3505 11.2501 14.6685 11.2501 15C11.2501 15.3315 11.3818 15.6495 11.6162 15.8839C11.8506 16.1183 12.1686 16.25 12.5001 16.25H13.7501V17.5C13.7501 17.8315 13.8818 18.1495 14.1162 18.3839C14.3506 18.6183 14.6686 18.75 15.0001 18.75C15.3316 18.75 15.6496 18.6183 15.884 18.3839C16.1184 18.1495 16.2501 17.8315 16.2501 17.5V16.25H17.5001C17.8316 16.25 18.1496 16.1183 18.384 15.8839C18.6184 15.6495 18.7501 15.3315 18.7501 15C18.7501 14.6685 18.6184 14.3505 18.384 14.1161C18.1496 13.8817 17.8316 13.75 17.5001 13.75ZM25.2001 6.24999C23.8672 4.93087 22.1068 4.13158 20.2364 3.99635C18.366 3.86111 16.5089 4.39883 15.0001 5.51249C13.4097 4.32954 11.4301 3.79313 9.46 4.01129C7.48991 4.22945 5.67565 5.18597 4.38257 6.68822C3.08948 8.19048 2.41363 10.1269 2.4911 12.1075C2.56858 14.0881 3.39362 15.9658 4.8001 17.3625L12.3001 24.925C13.0032 25.6272 13.9563 26.0217 14.9501 26.0217C15.9439 26.0217 16.897 25.6272 17.6001 24.925L25.1001 17.3625C25.8388 16.6408 26.4275 15.7802 26.8325 14.8303C27.2375 13.8803 27.4508 12.8597 27.4601 11.827C27.4694 10.7944 27.2745 9.77006 26.8867 8.81297C26.4988 7.85587 25.9257 6.98486 25.2001 6.24999V6.24999ZM23.4376 15.575L15.9376 23.075C15.8214 23.1922 15.6831 23.2851 15.5308 23.3486C15.3785 23.4121 15.2151 23.4447 15.0501 23.4447C14.8851 23.4447 14.7217 23.4121 14.5694 23.3486C14.4171 23.2851 14.2788 23.1922 14.1626 23.075L6.6626 15.575C5.6823 14.5729 5.13336 13.2268 5.13336 11.825C5.13336 10.4232 5.6823 9.07706 6.6626 8.07499C7.66154 7.08873 9.00882 6.5357 10.4126 6.5357C11.8164 6.5357 13.1637 7.08873 14.1626 8.07499C14.2788 8.19215 14.4171 8.28515 14.5694 8.34861C14.7217 8.41207 14.8851 8.44474 15.0501 8.44474C15.2151 8.44474 15.3785 8.41207 15.5308 8.34861C15.6831 8.28515 15.8214 8.19215 15.9376 8.07499C16.9365 7.08873 18.2838 6.5357 19.6876 6.5357C21.0914 6.5357 22.4387 7.08873 23.4376 8.07499C24.4254 9.07817 24.9791 10.4296 24.9791 11.8375C24.9791 13.2454 24.4254 14.5968 23.4376 15.6V15.575Z" fill="#FFB84E"/>
</svg>
