<svg width="371" height="314" viewBox="0 0 371 314" fill="none" xmlns="http://www.w3.org/2000/svg">
<path d="M67.5 215.4L157.928 145.841" stroke="black" stroke-width="24"/>
<path d="M138.537 81.5298C131.998 73.056 123.975 65.8601 114.925 60.353C105.875 54.8459 95.9764 51.1354 85.7932 49.4335C75.6101 47.7315 65.3422 48.0714 55.5758 50.4337C45.8095 52.796 36.736 57.1345 28.8733 63.2014C21.0106 69.2683 14.5128 76.9449 9.75084 85.7928C4.98887 94.6407 2.05599 104.487 1.11967 114.769C0.18335 125.05 1.26192 135.567 4.29381 145.717C7.32569 155.868 12.2515 165.454 18.79 173.928L37.7698 159.282C33.304 153.495 29.9397 146.948 27.8689 140.015C25.7981 133.082 25.0615 125.899 25.701 118.877C26.3405 111.854 28.3436 105.13 31.5961 99.0865C34.8485 93.0433 39.2865 87.8002 44.6567 83.6565C50.0269 79.5128 56.2242 76.5497 62.8946 74.9362C69.565 73.3227 76.5779 73.0906 83.533 74.253C90.4881 75.4155 97.2492 77.9497 103.43 81.7111C109.611 85.4724 115.091 90.3872 119.557 96.1748L138.537 81.5298Z" fill="black"/>
<mask id="path-3-inside-1_253_4647" fill="white">
<path d="M93.369 270.581C99.9075 279.055 107.931 286.251 116.98 291.758C126.03 297.265 135.929 300.975 146.113 302.677C156.296 304.379 166.564 304.039 176.331 301.677C186.097 299.314 195.171 294.975 203.034 288.908C210.897 282.841 217.395 275.165 222.157 266.316C226.919 257.468 229.852 247.622 230.789 237.34C231.725 227.058 230.647 216.542 227.615 206.391C224.583 196.241 219.657 186.655 213.119 178.181L194.15 192.817C198.617 198.607 201.983 205.156 204.054 212.09C206.125 219.025 206.862 226.21 206.222 233.235C205.582 240.259 203.578 246.986 200.325 253.031C197.071 259.076 192.632 264.321 187.26 268.466C181.888 272.611 175.689 275.575 169.017 277.189C162.344 278.803 155.329 279.035 148.372 277.873C141.415 276.71 134.652 274.175 128.469 270.413C122.286 266.65 116.805 261.734 112.338 255.945L93.369 270.581Z"/>
</mask>
<path d="M93.369 270.581C99.9075 279.055 107.931 286.251 116.98 291.758C126.03 297.265 135.929 300.975 146.113 302.677C156.296 304.379 166.564 304.039 176.331 301.677C186.097 299.314 195.171 294.975 203.034 288.908C210.897 282.841 217.395 275.165 222.157 266.316C226.919 257.468 229.852 247.622 230.789 237.34C231.725 227.058 230.647 216.542 227.615 206.391C224.583 196.241 219.657 186.655 213.119 178.181L194.15 192.817C198.617 198.607 201.983 205.156 204.054 212.09C206.125 219.025 206.862 226.21 206.222 233.235C205.582 240.259 203.578 246.986 200.325 253.031C197.071 259.076 192.632 264.321 187.26 268.466C181.888 272.611 175.689 275.575 169.017 277.189C162.344 278.803 155.329 279.035 148.372 277.873C141.415 276.71 134.652 274.175 128.469 270.413C122.286 266.65 116.805 261.734 112.338 255.945L93.369 270.581Z" fill="black" stroke="black" stroke-width="2" mask="url(#path-3-inside-1_253_4647)"/>
<line x1="27.655" y1="165.773" x2="103.081" y2="263.525" stroke="black" stroke-width="24" style="mix-blend-mode:color-burn"/>
<line x1="127.947" y1="87.5104" x2="204.645" y2="186.91" stroke="black" stroke-width="24" style="mix-blend-mode:color-burn"/>
<rect x="44" y="174" width="327" height="139" rx="61" fill="black"/>
<path d="M83.296 221.2H88.032V266H83.296V221.2ZM115.601 266.32C112.273 266.32 109.286 265.595 106.641 264.144C104.038 262.693 101.99 260.667 100.497 258.064C99.0032 255.419 98.2565 252.453 98.2565 249.168C98.2565 245.883 99.0032 242.939 100.497 240.336C101.99 237.733 104.038 235.707 106.641 234.256C109.286 232.805 112.273 232.08 115.601 232.08C118.502 232.08 121.083 232.656 123.345 233.808C125.649 234.917 127.462 236.56 128.785 238.736L125.393 241.04C124.283 239.376 122.875 238.139 121.169 237.328C119.462 236.475 117.606 236.048 115.601 236.048C113.169 236.048 110.971 236.603 109.009 237.712C107.089 238.779 105.574 240.315 104.465 242.32C103.398 244.325 102.865 246.608 102.865 249.168C102.865 251.771 103.398 254.075 104.465 256.08C105.574 258.043 107.089 259.579 109.009 260.688C110.971 261.755 113.169 262.288 115.601 262.288C117.606 262.288 119.462 261.883 121.169 261.072C122.875 260.261 124.283 259.024 125.393 257.36L128.785 259.664C127.462 261.84 125.649 263.504 123.345 264.656C121.041 265.765 118.459 266.32 115.601 266.32ZM166.461 250.576H138.301C138.557 254.075 139.901 256.912 142.333 259.088C144.765 261.221 147.837 262.288 151.549 262.288C153.639 262.288 155.559 261.925 157.309 261.2C159.058 260.432 160.573 259.323 161.853 257.872L164.413 260.816C162.919 262.608 161.042 263.973 158.781 264.912C156.562 265.851 154.109 266.32 151.421 266.32C147.965 266.32 144.893 265.595 142.205 264.144C139.559 262.651 137.49 260.603 135.997 258C134.503 255.397 133.757 252.453 133.757 249.168C133.757 245.883 134.461 242.939 135.869 240.336C137.319 237.733 139.282 235.707 141.757 234.256C144.274 232.805 147.09 232.08 150.205 232.08C153.319 232.08 156.114 232.805 158.589 234.256C161.063 235.707 163.005 237.733 164.413 240.336C165.821 242.896 166.525 245.84 166.525 249.168L166.461 250.576ZM150.205 235.984C146.962 235.984 144.231 237.029 142.013 239.12C139.837 241.168 138.599 243.856 138.301 247.184H162.173C161.874 243.856 160.615 241.168 158.397 239.12C156.221 237.029 153.49 235.984 150.205 235.984ZM193.118 232.08C196.275 232.08 199.134 232.805 201.694 234.256C204.254 235.664 206.259 237.669 207.71 240.272C209.16 242.875 209.886 245.84 209.886 249.168C209.886 252.496 209.16 255.461 207.71 258.064C206.259 260.667 204.254 262.693 201.694 264.144C199.134 265.595 196.275 266.32 193.118 266.32C190.302 266.32 187.763 265.723 185.502 264.528C183.283 263.333 181.491 261.605 180.126 259.344V266H175.774V218.512H180.318V238.736C181.726 236.56 183.518 234.917 185.694 233.808C187.912 232.656 190.387 232.08 193.118 232.08ZM192.798 262.288C195.144 262.288 197.278 261.755 199.198 260.688C201.118 259.579 202.611 258.021 203.678 256.016C204.787 254.011 205.342 251.728 205.342 249.168C205.342 246.608 204.787 244.325 203.678 242.32C202.611 240.315 201.118 238.779 199.198 237.712C197.278 236.603 195.144 236.048 192.798 236.048C190.408 236.048 188.254 236.603 186.333 237.712C184.456 238.779 182.963 240.315 181.854 242.32C180.787 244.325 180.254 246.608 180.254 249.168C180.254 251.728 180.787 254.011 181.854 256.016C182.963 258.021 184.456 259.579 186.333 260.688C188.254 261.755 190.408 262.288 192.798 262.288ZM223.501 238.928C224.567 236.667 226.146 234.96 228.237 233.808C230.37 232.656 232.994 232.08 236.109 232.08V236.496L235.021 236.432C231.479 236.432 228.706 237.52 226.701 239.696C224.695 241.872 223.693 244.923 223.693 248.848V266H219.149V232.336H223.501V238.928ZM273.336 250.576H245.176C245.432 254.075 246.776 256.912 249.208 259.088C251.64 261.221 254.712 262.288 258.424 262.288C260.514 262.288 262.434 261.925 264.184 261.2C265.933 260.432 267.448 259.323 268.728 257.872L271.288 260.816C269.794 262.608 267.917 263.973 265.656 264.912C263.437 265.851 260.984 266.32 258.296 266.32C254.84 266.32 251.768 265.595 249.08 264.144C246.434 262.651 244.365 260.603 242.872 258C241.378 255.397 240.632 252.453 240.632 249.168C240.632 245.883 241.336 242.939 242.744 240.336C244.194 237.733 246.157 235.707 248.632 234.256C251.149 232.805 253.965 232.08 257.08 232.08C260.194 232.08 262.989 232.805 265.464 234.256C267.938 235.707 269.88 237.733 271.288 240.336C272.696 242.896 273.4 245.84 273.4 249.168L273.336 250.576ZM257.08 235.984C253.837 235.984 251.106 237.029 248.888 239.12C246.712 241.168 245.474 243.856 245.176 247.184H269.048C268.749 243.856 267.49 241.168 265.272 239.12C263.096 237.029 260.365 235.984 257.08 235.984ZM282.649 218.512H287.193V266H282.649V218.512ZM299.836 218.512H304.38V266H299.836V218.512ZM328.8 232.08C333.194 232.08 336.565 233.189 338.912 235.408C341.258 237.584 342.432 240.827 342.432 245.136V266H338.08V260.752C337.056 262.501 335.541 263.867 333.536 264.848C331.573 265.829 329.226 266.32 326.496 266.32C322.741 266.32 319.754 265.424 317.536 263.632C315.317 261.84 314.208 259.472 314.208 256.528C314.208 253.669 315.232 251.365 317.28 249.616C319.37 247.867 322.677 246.992 327.2 246.992H337.888V244.944C337.888 242.043 337.077 239.845 335.456 238.352C333.834 236.816 331.466 236.048 328.352 236.048C326.218 236.048 324.17 236.411 322.208 237.136C320.245 237.819 318.56 238.779 317.152 240.016L315.104 236.624C316.81 235.173 318.858 234.064 321.248 233.296C323.637 232.485 326.154 232.08 328.8 232.08ZM327.2 262.736C329.76 262.736 331.957 262.16 333.792 261.008C335.626 259.813 336.992 258.107 337.888 255.888V250.384H327.328C321.568 250.384 318.688 252.389 318.688 256.4C318.688 258.363 319.434 259.92 320.928 261.072C322.421 262.181 324.512 262.736 327.2 262.736Z" fill="white"/>
<path d="M83.296 221.2V219.2H81.296V221.2H83.296ZM88.032 221.2H90.032V219.2H88.032V221.2ZM88.032 266V268H90.032V266H88.032ZM83.296 266H81.296V268H83.296V266ZM83.296 223.2H88.032V219.2H83.296V223.2ZM86.032 221.2V266H90.032V221.2H86.032ZM88.032 264H83.296V268H88.032V264ZM85.296 266V221.2H81.296V266H85.296ZM106.64 264.144L105.667 265.891L105.679 265.898L106.64 264.144ZM100.497 258.064L98.7548 259.047L98.7618 259.059L100.497 258.064ZM100.497 240.336L98.7618 239.341L100.497 240.336ZM106.64 234.256L105.679 232.502L105.667 232.509L106.64 234.256ZM123.345 233.808L122.437 235.59L122.457 235.6L122.477 235.61L123.345 233.808ZM128.785 238.736L129.908 240.39L131.481 239.322L130.494 237.697L128.785 238.736ZM125.393 241.04L123.728 242.149L124.847 243.828L126.516 242.694L125.393 241.04ZM121.169 237.328L120.274 239.117L120.292 239.126L120.31 239.135L121.169 237.328ZM109.008 237.712L109.98 239.46L109.986 239.457L109.993 239.453L109.008 237.712ZM104.465 242.32L102.714 241.352L102.706 241.366L102.699 241.381L104.465 242.32ZM104.465 256.08L102.699 257.019L102.711 257.042L102.723 257.064L104.465 256.08ZM109.008 260.688L108.008 262.42L108.031 262.433L108.053 262.445L109.008 260.688ZM121.169 261.072L120.31 259.265L121.169 261.072ZM125.393 257.36L126.516 255.706L124.847 254.572L123.728 256.251L125.393 257.36ZM128.785 259.664L130.494 260.703L131.481 259.078L129.908 258.01L128.785 259.664ZM123.345 264.656L124.212 266.458L124.226 266.452L124.239 266.445L123.345 264.656ZM115.601 264.32C112.573 264.32 109.923 263.663 107.602 262.39L105.679 265.898C108.648 267.526 111.972 268.32 115.601 268.32V264.32ZM107.614 262.397C105.331 261.124 103.545 259.359 102.231 257.069L98.7618 259.059C100.434 261.975 102.745 264.262 105.667 265.891L107.614 262.397ZM102.238 257.081C100.928 254.76 100.257 252.138 100.257 249.168H96.2565C96.2565 252.769 97.0785 256.078 98.7549 259.047L102.238 257.081ZM100.257 249.168C100.257 246.198 100.928 243.603 102.231 241.331L98.7618 239.341C97.0784 242.274 96.2565 245.567 96.2565 249.168H100.257ZM102.231 241.331C103.545 239.041 105.331 237.276 107.614 236.003L105.667 232.509C102.745 234.138 100.434 236.425 98.7618 239.341L102.231 241.331ZM107.602 236.01C109.923 234.737 112.573 234.08 115.601 234.08V230.08C111.972 230.08 108.648 230.874 105.679 232.502L107.602 236.01ZM115.601 234.08C118.232 234.08 120.494 234.601 122.437 235.59L124.252 232.026C121.672 230.711 118.772 230.08 115.601 230.08V234.08ZM122.477 235.61C124.434 236.552 125.954 237.931 127.075 239.775L130.494 237.697C128.969 235.189 126.863 233.282 124.212 232.006L122.477 235.61ZM127.661 237.082L124.269 239.386L126.516 242.694L129.908 240.39L127.661 237.082ZM127.057 239.931C125.759 237.984 124.079 236.497 122.027 235.521L120.31 239.135C121.671 239.781 122.808 240.768 123.728 242.149L127.057 239.931ZM122.063 235.539C120.064 234.54 117.9 234.048 115.601 234.048V238.048C117.312 238.048 118.859 238.409 120.274 239.117L122.063 235.539ZM115.601 234.048C112.852 234.048 110.311 234.679 108.024 235.971L109.993 239.453C111.632 238.527 113.485 238.048 115.601 238.048V234.048ZM108.037 235.964C105.775 237.22 103.997 239.034 102.714 241.352L106.215 243.288C107.151 241.596 108.402 240.337 109.98 239.46L108.037 235.964ZM102.699 241.381C101.46 243.71 100.865 246.323 100.865 249.168H104.865C104.865 246.893 105.336 244.94 106.23 243.259L102.699 241.381ZM100.865 249.168C100.865 252.05 101.457 254.685 102.699 257.019L106.23 255.141C105.339 253.464 104.865 251.491 104.865 249.168H100.865ZM102.723 257.064C104.005 259.332 105.773 261.129 108.008 262.42L110.009 258.956C108.404 258.029 107.142 256.753 106.206 255.096L102.723 257.064ZM108.053 262.445C110.335 263.685 112.865 264.288 115.601 264.288V260.288C113.472 260.288 111.608 259.824 109.964 258.931L108.053 262.445ZM115.601 264.288C117.884 264.288 120.035 263.824 122.027 262.879L120.31 259.265C118.888 259.941 117.328 260.288 115.601 260.288V264.288ZM122.027 262.879C124.079 261.903 125.759 260.416 127.057 258.469L123.728 256.251C122.808 257.632 121.671 258.619 120.31 259.265L122.027 262.879ZM124.269 259.014L127.661 261.318L129.908 258.01L126.516 255.706L124.269 259.014ZM127.075 258.625C125.951 260.476 124.421 261.881 122.45 262.867L124.239 266.445C126.876 265.127 128.973 263.204 130.494 260.703L127.075 258.625ZM122.477 262.854C120.474 263.818 118.194 264.32 115.601 264.32V268.32C118.724 268.32 121.607 267.712 124.212 266.458L122.477 262.854ZM166.461 250.576V252.576H168.372L168.458 250.667L166.461 250.576ZM138.3 250.576V248.576H136.149L136.306 250.722L138.3 250.576ZM142.333 259.088L140.999 260.578L141.006 260.585L141.014 260.592L142.333 259.088ZM157.309 261.2L158.075 263.047L158.094 263.04L158.112 263.031L157.309 261.2ZM161.853 257.872L163.362 256.56L161.863 254.837L160.353 256.549L161.853 257.872ZM164.413 260.816L165.949 262.096L167.039 260.788L165.922 259.504L164.413 260.816ZM158.781 264.912L158.014 263.065L158.001 263.07L158.781 264.912ZM142.204 264.144L141.221 265.886L141.238 265.895L141.255 265.904L142.204 264.144ZM135.996 258L134.262 258.995H134.262L135.996 258ZM135.868 240.336L134.122 239.362L134.115 239.373L134.109 239.384L135.868 240.336ZM141.757 234.256L140.758 232.523L140.751 232.527L140.745 232.531L141.757 234.256ZM158.589 234.256L159.6 232.531L158.589 234.256ZM164.413 240.336L162.653 241.288L162.66 241.3L164.413 240.336ZM166.525 249.168L168.522 249.259L168.525 249.213V249.168H166.525ZM142.012 239.12L143.383 240.576L143.384 240.576L142.012 239.12ZM138.3 247.184L136.309 247.005L136.113 249.184H138.3V247.184ZM162.173 247.184V249.184H164.36L164.164 247.005L162.173 247.184ZM158.396 239.12L157.011 240.562L157.025 240.576L157.04 240.59L158.396 239.12ZM166.461 248.576H138.3V252.576H166.461V248.576ZM136.306 250.722C136.597 254.695 138.15 258.029 140.999 260.578L143.666 257.598C141.651 255.795 140.516 253.454 140.295 250.43L136.306 250.722ZM141.014 260.592C143.864 263.092 147.427 264.288 151.549 264.288V260.288C148.246 260.288 145.665 259.351 143.651 257.584L141.014 260.592ZM151.549 264.288C153.875 264.288 156.058 263.883 158.075 263.047L156.542 259.353C155.06 259.967 153.404 260.288 151.549 260.288V264.288ZM158.112 263.031C160.131 262.145 161.882 260.861 163.352 259.195L160.353 256.549C159.263 257.784 157.984 258.719 156.505 259.369L158.112 263.031ZM160.343 259.184L162.903 262.128L165.922 259.504L163.362 256.56L160.343 259.184ZM162.876 259.536C161.6 261.067 159.992 262.244 158.014 263.065L159.547 266.759C162.092 265.703 164.238 264.149 165.949 262.096L162.876 259.536ZM158.001 263.07C156.056 263.893 153.872 264.32 151.421 264.32V268.32C154.345 268.32 157.067 267.808 159.56 266.754L158.001 263.07ZM151.421 264.32C148.252 264.32 145.514 263.657 143.154 262.384L141.255 265.904C144.271 267.532 147.677 268.32 151.421 268.32V264.32ZM143.188 262.402C140.851 261.083 139.043 259.292 137.731 257.005L134.262 258.995C135.936 261.914 138.267 264.218 141.221 265.886L143.188 262.402ZM137.731 257.005C136.428 254.733 135.757 252.138 135.757 249.168H131.757C131.757 252.769 132.578 256.062 134.262 258.995L137.731 257.005ZM135.757 249.168C135.757 246.178 136.395 243.567 137.628 241.288L134.109 239.384C132.526 242.31 131.757 245.588 131.757 249.168H135.757ZM137.615 241.31C138.899 239.006 140.613 237.244 142.768 235.981L140.745 232.531C137.95 234.169 135.739 236.461 134.122 239.362L137.615 241.31ZM142.755 235.989C144.947 234.726 147.414 234.08 150.204 234.08V230.08C146.765 230.08 143.601 230.885 140.758 232.523L142.755 235.989ZM150.204 234.08C152.995 234.08 155.435 234.726 157.577 235.981L159.6 232.531C156.792 230.885 153.643 230.08 150.204 230.08V234.08ZM157.577 235.981C159.726 237.241 161.414 238.996 162.653 241.288L166.172 239.384C164.595 236.471 162.4 234.172 159.6 232.531L157.577 235.981ZM162.66 241.3C163.884 243.526 164.525 246.13 164.525 249.168H168.525C168.525 245.55 167.757 242.266 166.165 239.372L162.66 241.3ZM164.527 249.077L164.463 250.485L168.458 250.667L168.522 249.259L164.527 249.077ZM150.204 233.984C146.488 233.984 143.256 235.2 140.641 237.664L143.384 240.576C145.206 238.858 147.436 237.984 150.204 237.984V233.984ZM140.642 237.664C138.067 240.087 136.645 243.252 136.309 247.005L140.292 247.363C140.553 244.46 141.606 242.249 143.383 240.576L140.642 237.664ZM138.3 249.184H162.173V245.184H138.3V249.184ZM164.164 247.005C163.827 243.24 162.376 240.072 159.753 237.65L157.04 240.59C158.854 242.264 159.921 244.472 160.181 247.363L164.164 247.005ZM159.782 237.678C157.199 235.196 153.956 233.984 150.204 233.984V237.984C153.023 237.984 155.242 238.863 157.011 240.562L159.782 237.678ZM201.693 234.256L200.707 235.996L200.719 236.002L200.73 236.008L201.693 234.256ZM207.71 240.272L209.456 239.298L207.71 240.272ZM207.71 258.064L209.456 259.038L207.71 258.064ZM201.693 264.144L200.707 262.404L201.693 264.144ZM185.502 264.528L184.553 266.289L184.56 266.293L184.567 266.296L185.502 264.528ZM180.126 259.344L181.838 258.31L178.126 252.162V259.344H180.126ZM180.126 266V268H182.126V266H180.126ZM175.773 266H173.773V268H175.773V266ZM175.773 218.512V216.512H173.773V218.512H175.773ZM180.317 218.512H182.317V216.512H180.317V218.512ZM180.317 238.736H178.317V245.508L181.997 239.823L180.317 238.736ZM185.693 233.808L186.602 235.59L186.609 235.586L186.615 235.583L185.693 233.808ZM199.198 260.688L200.169 262.436L200.183 262.428L200.198 262.42L199.198 260.688ZM203.678 256.016L201.927 255.048L201.919 255.062L201.912 255.077L203.678 256.016ZM203.678 242.32L201.912 243.259L201.919 243.274L201.927 243.288L203.678 242.32ZM199.198 237.712L198.197 239.444L198.212 239.452L198.226 239.46L199.198 237.712ZM186.333 237.712L187.322 239.451L187.328 239.447L187.334 239.444L186.333 237.712ZM181.854 242.32L180.103 241.352L180.095 241.366L180.088 241.381L181.854 242.32ZM181.854 256.016L180.088 256.955L180.095 256.97L180.103 256.984L181.854 256.016ZM186.333 260.688L185.316 262.41L185.339 262.423L185.362 262.436L186.333 260.688ZM193.118 234.08C195.955 234.08 198.47 234.728 200.707 235.996L202.68 232.516C199.797 230.882 196.594 230.08 193.118 230.08V234.08ZM200.73 236.008C202.954 237.232 204.691 238.964 205.963 241.246L209.456 239.298C207.827 236.375 205.553 234.096 202.657 232.504L200.73 236.008ZM205.963 241.246C207.229 243.517 207.885 246.14 207.885 249.168H211.885C211.885 245.54 211.092 242.232 209.456 239.298L205.963 241.246ZM207.885 249.168C207.885 252.196 207.229 254.819 205.963 257.09L209.456 259.038C211.092 256.104 211.885 252.796 211.885 249.168H207.885ZM205.963 257.09C204.688 259.377 202.944 261.137 200.707 262.404L202.68 265.884C205.563 264.25 207.83 261.956 209.456 259.038L205.963 257.09ZM200.707 262.404C198.47 263.672 195.955 264.32 193.118 264.32V268.32C196.594 268.32 199.797 267.518 202.68 265.884L200.707 262.404ZM193.118 264.32C190.594 264.32 188.381 263.787 186.436 262.76L184.567 266.296C187.145 267.658 190.009 268.32 193.118 268.32V264.32ZM186.45 262.767C184.562 261.75 183.027 260.281 181.838 258.31L178.413 260.378C179.954 262.93 182.004 264.916 184.553 266.289L186.45 262.767ZM178.126 259.344V266H182.126V259.344H178.126ZM180.126 264H175.773V268H180.126V264ZM177.773 266V218.512H173.773V266H177.773ZM175.773 220.512H180.317V216.512H175.773V220.512ZM178.317 218.512V238.736H182.317V218.512H178.317ZM181.997 239.823C183.226 237.923 184.759 236.529 186.602 235.59L184.785 232.026C182.276 233.305 180.225 235.197 178.638 237.649L181.997 239.823ZM186.615 235.583C188.523 234.592 190.677 234.08 193.118 234.08V230.08C190.096 230.08 187.301 230.72 184.772 232.033L186.615 235.583ZM192.798 264.288C195.46 264.288 197.931 263.679 200.169 262.436L198.226 258.94C196.624 259.83 194.828 260.288 192.798 260.288V264.288ZM200.198 262.42C202.451 261.118 204.205 259.283 205.443 256.955L201.912 255.077C201.016 256.76 199.785 258.039 198.197 258.956L200.198 262.42ZM205.428 256.984C206.719 254.649 207.342 252.026 207.342 249.168H203.342C203.342 251.43 202.854 253.372 201.927 255.048L205.428 256.984ZM207.342 249.168C207.342 246.31 206.719 243.687 205.428 241.352L201.927 243.288C202.854 244.964 203.342 246.906 203.342 249.168H207.342ZM205.443 241.381C204.202 239.047 202.438 237.224 200.169 235.964L198.226 239.46C199.797 240.333 201.02 241.582 201.912 243.259L205.443 241.381ZM200.198 235.98C197.956 234.685 195.474 234.048 192.798 234.048V238.048C194.814 238.048 196.599 238.52 198.197 239.444L200.198 235.98ZM192.798 234.048C190.085 234.048 187.581 234.682 185.333 235.98L187.334 239.444C188.926 238.524 190.731 238.048 192.798 238.048V234.048ZM185.345 235.973C183.128 237.233 181.38 239.045 180.103 241.352L183.604 243.288C184.546 241.584 185.784 240.324 187.322 239.451L185.345 235.973ZM180.088 241.381C178.849 243.71 178.254 246.323 178.254 249.168H182.254C182.254 246.893 182.725 244.94 183.619 243.259L180.088 241.381ZM178.254 249.168C178.254 252.013 178.849 254.626 180.088 256.955L183.619 255.077C182.725 253.396 182.254 251.443 182.254 249.168H178.254ZM180.103 256.984C181.376 259.285 183.116 261.11 185.316 262.41L187.351 258.966C185.797 258.048 184.549 256.758 183.604 255.048L180.103 256.984ZM185.362 262.436C187.605 263.682 190.099 264.288 192.798 264.288V260.288C190.717 260.288 188.902 259.827 187.305 258.94L185.362 262.436ZM223.501 238.928H221.501L225.309 239.781L223.501 238.928ZM228.236 233.808L227.286 232.048L227.279 232.052L227.271 232.056L228.236 233.808ZM236.109 232.08H238.109V230.08H236.109V232.08ZM236.109 236.496L235.991 238.493L238.109 238.617V236.496H236.109ZM235.021 236.432L235.138 234.435L235.079 234.432H235.021V236.432ZM226.701 239.696L228.171 241.051L226.701 239.696ZM223.693 266V268H225.693V266H223.693ZM219.148 266H217.148V268H219.148V266ZM219.148 232.336V230.336H217.148V232.336H219.148ZM223.501 232.336H225.501V230.336H223.501V232.336ZM225.309 239.781C226.205 237.881 227.498 236.498 229.202 235.56L227.271 232.056C224.794 233.422 222.929 235.452 221.692 238.075L225.309 239.781ZM229.187 235.568C230.957 234.612 233.234 234.08 236.109 234.08V230.08C232.754 230.08 229.783 230.7 227.286 232.048L229.187 235.568ZM234.109 232.08V236.496H238.109V232.08H234.109ZM236.226 234.499L235.138 234.435L234.903 238.429L235.991 238.493L236.226 234.499ZM235.021 234.432C231.04 234.432 227.688 235.674 225.23 238.341L228.171 241.051C229.724 239.366 231.919 238.432 235.021 238.432V234.432ZM225.23 238.341C222.785 240.993 221.693 244.588 221.693 248.848H225.693C225.693 245.257 226.605 242.751 228.171 241.051L225.23 238.341ZM221.693 248.848V266H225.693V248.848H221.693ZM223.693 264H219.148V268H223.693V264ZM221.148 266V232.336H217.148V266H221.148ZM219.148 234.336H223.501V230.336H219.148V234.336ZM221.501 232.336V238.928H225.501V232.336H221.501ZM273.336 250.576V252.576H275.247L275.333 250.667L273.336 250.576ZM245.176 250.576V248.576H243.024L243.181 250.722L245.176 250.576ZM249.208 259.088L247.874 260.578L247.881 260.585L247.889 260.592L249.208 259.088ZM264.184 261.2L264.95 263.047L264.969 263.04L264.987 263.031L264.184 261.2ZM268.728 257.872L270.237 256.56L268.738 254.837L267.228 256.549L268.728 257.872ZM271.288 260.816L272.824 262.096L273.914 260.788L272.797 259.504L271.288 260.816ZM265.656 264.912L264.889 263.065L264.876 263.07L265.656 264.912ZM249.079 264.144L248.096 265.886L248.113 265.895L248.13 265.904L249.079 264.144ZM242.872 258L241.137 258.995L242.872 258ZM242.743 240.336L240.997 239.362L240.99 239.373L240.984 239.384L242.743 240.336ZM248.632 234.256L247.633 232.523L247.626 232.527L247.62 232.531L248.632 234.256ZM265.464 234.256L266.475 232.531L265.464 234.256ZM271.288 240.336L269.528 241.288L269.535 241.3L271.288 240.336ZM273.4 249.168L275.397 249.259L275.4 249.213V249.168H273.4ZM248.887 239.12L250.258 240.576L250.259 240.576L248.887 239.12ZM245.176 247.184L243.184 247.005L242.988 249.184H245.176V247.184ZM269.048 247.184V249.184H271.235L271.039 247.005L269.048 247.184ZM265.271 239.12L263.886 240.562L263.9 240.576L263.915 240.59L265.271 239.12ZM273.336 248.576H245.176V252.576H273.336V248.576ZM243.181 250.722C243.472 254.695 245.025 258.029 247.874 260.578L250.541 257.598C248.526 255.795 247.391 253.454 247.17 250.43L243.181 250.722ZM247.889 260.592C250.739 263.092 254.302 264.288 258.423 264.288V260.288C255.121 260.288 252.54 259.351 250.526 257.584L247.889 260.592ZM258.423 264.288C260.75 264.288 262.933 263.883 264.95 263.047L263.417 259.353C261.935 259.967 260.279 260.288 258.423 260.288V264.288ZM264.987 263.031C267.006 262.145 268.757 260.861 270.227 259.195L267.228 256.549C266.138 257.784 264.859 258.719 263.38 259.369L264.987 263.031ZM267.218 259.184L269.778 262.128L272.797 259.504L270.237 256.56L267.218 259.184ZM269.751 259.536C268.475 261.067 266.867 262.244 264.889 263.065L266.422 266.759C268.967 265.703 271.113 264.149 272.824 262.096L269.751 259.536ZM264.876 263.07C262.931 263.893 260.747 264.32 258.296 264.32V268.32C261.22 268.32 263.943 267.808 266.435 266.754L264.876 263.07ZM258.296 264.32C255.127 264.32 252.389 263.657 250.029 262.384L248.13 265.904C251.146 267.532 254.552 268.32 258.296 268.32V264.32ZM250.063 262.402C247.726 261.083 245.918 259.292 244.606 257.005L241.137 258.995C242.811 261.914 245.142 264.218 248.096 265.886L250.063 262.402ZM244.606 257.005C243.303 254.733 242.632 252.138 242.632 249.168H238.632C238.632 252.769 239.453 256.062 241.137 258.995L244.606 257.005ZM242.632 249.168C242.632 246.178 243.27 243.567 244.503 241.288L240.984 239.384C239.401 242.31 238.632 245.588 238.632 249.168H242.632ZM244.49 241.31C245.774 239.006 247.488 237.244 249.643 235.981L247.62 232.531C244.825 234.169 242.614 236.461 240.997 239.362L244.49 241.31ZM249.63 235.989C251.822 234.726 254.289 234.08 257.079 234.08V230.08C253.64 230.08 250.476 230.885 247.633 232.523L249.63 235.989ZM257.079 234.08C259.87 234.08 262.31 234.726 264.452 235.981L266.475 232.531C263.667 230.885 260.518 230.08 257.079 230.08V234.08ZM264.452 235.981C266.601 237.241 268.289 238.996 269.528 241.288L273.047 239.384C271.47 236.471 269.275 234.172 266.475 232.531L264.452 235.981ZM269.535 241.3C270.759 243.526 271.4 246.13 271.4 249.168H275.4C275.4 245.55 274.632 242.266 273.04 239.372L269.535 241.3ZM271.402 249.077L271.338 250.485L275.333 250.667L275.397 249.259L271.402 249.077ZM257.079 233.984C253.363 233.984 250.131 235.2 247.516 237.664L250.259 240.576C252.081 238.858 254.311 237.984 257.079 237.984V233.984ZM247.517 237.664C244.941 240.087 243.52 243.252 243.184 247.005L247.167 247.363C247.428 244.46 248.481 242.249 250.258 240.576L247.517 237.664ZM245.176 249.184H269.048V245.184H245.176V249.184ZM271.039 247.005C270.702 243.24 269.251 240.072 266.628 237.65L263.915 240.59C265.729 242.264 266.796 244.472 267.056 247.363L271.039 247.005ZM266.657 237.678C264.074 235.196 260.831 233.984 257.079 233.984V237.984C259.898 237.984 262.117 238.863 263.886 240.562L266.657 237.678ZM282.648 218.512V216.512H280.648V218.512H282.648ZM287.193 218.512H289.193V216.512H287.193V218.512ZM287.193 266V268H289.193V266H287.193ZM282.648 266H280.648V268H282.648V266ZM282.648 220.512H287.193V216.512H282.648V220.512ZM285.193 218.512V266H289.193V218.512H285.193ZM287.193 264H282.648V268H287.193V264ZM284.648 266V218.512H280.648V266H284.648ZM299.836 218.512V216.512H297.836V218.512H299.836ZM304.38 218.512H306.38V216.512H304.38V218.512ZM304.38 266V268H306.38V266H304.38ZM299.836 266H297.836V268H299.836V266ZM299.836 220.512H304.38V216.512H299.836V220.512ZM302.38 218.512V266H306.38V218.512H302.38ZM304.38 264H299.836V268H304.38V264ZM301.836 266V218.512H297.836V266H301.836ZM338.911 235.408L337.537 236.861L337.545 236.868L337.552 236.875L338.911 235.408ZM342.431 266V268H344.431V266H342.431ZM338.079 266H336.079V268H338.079V266ZM338.079 260.752H340.079V253.376L336.353 259.742L338.079 260.752ZM333.535 264.848L332.656 263.052L332.649 263.055L332.641 263.059L333.535 264.848ZM317.536 263.632L318.792 262.076L317.536 263.632ZM317.279 249.616L315.996 248.082L315.988 248.089L315.981 248.095L317.279 249.616ZM337.888 246.992V248.992H339.888V246.992H337.888ZM335.456 238.352L334.08 239.804L334.09 239.814L334.101 239.823L335.456 238.352ZM322.208 237.136L322.865 239.025L322.883 239.019L322.901 239.012L322.208 237.136ZM317.152 240.016L315.439 241.05L316.675 243.097L318.472 241.518L317.152 240.016ZM315.104 236.624L313.808 235.1L312.512 236.202L313.391 237.658L315.104 236.624ZM321.247 233.296L321.86 235.2L321.875 235.195L321.89 235.19L321.247 233.296ZM333.792 261.008L334.855 262.702L334.869 262.693L334.883 262.684L333.792 261.008ZM337.888 255.888L339.742 256.637L339.888 256.277V255.888H337.888ZM337.888 250.384H339.888V248.384H337.888V250.384ZM320.928 261.072L319.706 262.656L319.72 262.667L319.735 262.677L320.928 261.072ZM328.799 234.08C332.871 234.08 335.679 235.104 337.537 236.861L340.286 233.955C337.451 231.274 333.518 230.08 328.799 230.08V234.08ZM337.552 236.875C339.363 238.554 340.431 241.182 340.431 245.136H344.431C344.431 240.471 343.153 236.614 340.271 233.941L337.552 236.875ZM340.431 245.136V266H344.431V245.136H340.431ZM342.431 264H338.079V268H342.431V264ZM340.079 266V260.752H336.079V266H340.079ZM336.353 259.742C335.548 261.117 334.346 262.225 332.656 263.052L334.415 266.644C336.736 265.508 338.563 263.885 339.806 261.762L336.353 259.742ZM332.641 263.059C331.016 263.872 328.99 264.32 326.495 264.32V268.32C329.462 268.32 332.13 267.787 334.43 266.637L332.641 263.059ZM326.495 264.32C323.052 264.32 320.556 263.501 318.792 262.076L316.279 265.188C318.952 267.347 322.429 268.32 326.495 268.32V264.32ZM318.792 262.076C317.061 260.678 316.208 258.89 316.208 256.528H312.208C312.208 260.054 313.573 263.002 316.279 265.188L318.792 262.076ZM316.208 256.528C316.208 254.213 317.006 252.48 318.578 251.137L315.981 248.095C313.457 250.25 312.208 253.125 312.208 256.528H316.208ZM318.563 251.15C320.123 249.845 322.86 248.992 327.199 248.992V244.992C322.493 244.992 318.618 245.889 315.996 248.082L318.563 251.15ZM327.199 248.992H337.888V244.992H327.199V248.992ZM339.888 246.992V244.944H335.888V246.992H339.888ZM339.888 244.944C339.888 241.67 338.962 238.863 336.81 236.881L334.101 239.823C335.191 240.828 335.888 242.416 335.888 244.944H339.888ZM336.831 236.9C334.713 234.893 331.774 234.048 328.352 234.048V238.048C331.158 238.048 332.955 238.739 334.08 239.804L336.831 236.9ZM328.352 234.048C325.986 234.048 323.703 234.451 321.514 235.26L322.901 239.012C324.637 238.37 326.45 238.048 328.352 238.048V234.048ZM321.55 235.247C319.37 236.005 317.453 237.088 315.831 238.514L318.472 241.518C319.666 240.469 321.119 239.632 322.865 239.025L321.55 235.247ZM318.864 238.982L316.816 235.59L313.391 237.658L315.439 241.05L318.864 238.982ZM316.399 238.148C317.882 236.887 319.691 235.897 321.86 235.2L320.635 231.392C318.026 232.231 315.738 233.46 313.808 235.1L316.399 238.148ZM321.89 235.19C324.063 234.453 326.362 234.08 328.799 234.08V230.08C325.946 230.08 323.211 230.518 320.605 231.402L321.89 235.19ZM327.199 264.736C330.066 264.736 332.648 264.088 334.855 262.702L332.728 259.314C331.266 260.232 329.453 260.736 327.199 260.736V264.736ZM334.883 262.684C337.093 261.245 338.708 259.198 339.742 256.637L336.033 255.139C335.275 257.015 334.159 258.382 332.7 259.332L334.883 262.684ZM339.888 255.888V250.384H335.888V255.888H339.888ZM337.888 248.384H327.327V252.384H337.888V248.384ZM327.327 248.384C324.277 248.384 321.633 248.904 319.705 250.247C317.645 251.681 316.688 253.848 316.688 256.4H320.688C320.688 254.941 321.17 254.1 321.99 253.529C322.942 252.867 324.618 252.384 327.327 252.384V248.384ZM316.688 256.4C316.688 258.953 317.699 261.107 319.706 262.656L322.149 259.488C321.169 258.733 320.688 257.772 320.688 256.4H316.688ZM319.735 262.677C321.696 264.134 324.266 264.736 327.199 264.736V260.736C324.757 260.736 323.145 260.228 322.12 259.467L319.735 262.677Z" fill="url(#paint0_radial_253_4647)"/>
<defs>
<radialGradient id="paint0_radial_253_4647" cx="0" cy="0" r="1" gradientUnits="userSpaceOnUse" gradientTransform="translate(213.5 238.5) rotate(90) scale(34.5 137.5)">
<stop stop-color="#2CBDFB"/>
<stop offset="1" stop-color="#FEBDD3"/>
</radialGradient>
</defs>
</svg>
