<svg width="30" height="30" viewBox="0 0 30 30" fill="none" xmlns="http://www.w3.org/2000/svg">
<path d="M27.05 16.25C26.8696 16.1009 26.6509 16.0054 26.4189 15.9744C26.1868 15.9435 25.9508 15.9783 25.7375 16.075C24.4158 16.6799 22.9786 16.9912 21.525 16.9875C18.8361 16.9843 16.2575 15.9181 14.3515 14.0214C12.4454 12.1247 11.3665 9.55139 11.35 6.86251C11.3557 6.0198 11.4606 5.18069 11.6625 4.36251C11.7054 4.14443 11.6893 3.91887 11.616 3.70907C11.5427 3.49927 11.4147 3.31282 11.2453 3.16892C11.076 3.02502 10.8713 2.92888 10.6524 2.8904C10.4335 2.85192 10.2083 2.8725 10 2.95001C8.04045 3.83114 6.33701 5.19596 5.04975 6.91624C3.76248 8.63651 2.93365 10.6558 2.64111 12.7844C2.34857 14.9129 2.60193 17.0809 3.37738 19.0847C4.15284 21.0885 5.42494 22.8622 7.07417 24.2393C8.72341 25.6165 10.6956 26.5517 12.8056 26.9573C14.9156 27.3628 17.094 27.2254 19.1362 26.5578C21.1785 25.8902 23.0175 24.7145 24.4805 23.141C25.9436 21.5675 26.9826 19.6479 27.5 17.5625C27.5631 17.3238 27.554 17.0717 27.4739 16.8381C27.3938 16.6045 27.2463 16.3999 27.05 16.25V16.25ZM15.175 24.6125C13.0772 24.5977 11.0353 23.9348 9.32879 22.7147C7.62228 21.4945 6.33463 19.7767 5.64215 17.7964C4.94967 15.8161 4.88622 13.6702 5.46047 11.6525C6.03473 9.63479 7.21862 7.84388 8.85005 6.52501V6.86251C8.85336 10.2231 10.1898 13.4451 12.5661 15.8214C14.9424 18.1977 18.1644 19.5342 21.525 19.5375C22.4074 19.5407 23.2875 19.4485 24.15 19.2625C23.2874 20.8944 21.9956 22.2598 20.414 23.2114C18.8324 24.1631 17.0209 24.6648 15.175 24.6625V24.6125Z" fill="#FFB84E"/>
</svg>
