<svg width="30" height="30" viewBox="0 0 30 30" fill="none" xmlns="http://www.w3.org/2000/svg">
<path d="M13.75 23.75H10C9.66848 23.75 9.35054 23.8817 9.11612 24.1161C8.8817 24.3505 8.75 24.6685 8.75 25C8.75 25.3315 8.8817 25.6495 9.11612 25.8839C9.35054 26.1183 9.66848 26.25 10 26.25H13.75C14.0815 26.25 14.3995 26.1183 14.6339 25.8839C14.8683 25.6495 15 25.3315 15 25C15 24.6685 14.8683 24.3505 14.6339 24.1161C14.3995 23.8817 14.0815 23.75 13.75 23.75ZM25 18.75H23.55C24.2691 17.6271 24.7617 16.3744 25 15.0625C25.0362 14.8485 25.016 14.6288 24.9415 14.4249C24.867 14.2211 24.7407 14.0402 24.575 13.9C24.407 13.7521 24.2024 13.6521 23.9825 13.6103C23.7626 13.5685 23.5355 13.5865 23.325 13.6625C22.5521 13.9256 21.7414 14.0607 20.925 14.0625C18.9289 14.0626 17.0135 13.2748 15.595 11.8704C14.1766 10.466 13.3698 8.55848 13.35 6.56249C13.3614 6.14335 13.4031 5.72559 13.475 5.31249C13.5074 5.09935 13.4842 4.88144 13.4075 4.67994C13.3309 4.47843 13.2034 4.30018 13.0375 4.16249C12.8683 4.01673 12.663 3.91898 12.4432 3.87941C12.2234 3.83984 11.997 3.85989 11.7875 3.93749C9.82378 4.61522 8.11756 5.88341 6.9025 7.56838C5.68744 9.25336 5.02294 11.2727 5 13.35C5.00124 15.2649 5.55223 17.1391 6.5875 18.75H5C4.66848 18.75 4.35054 18.8817 4.11612 19.1161C3.8817 19.3505 3.75 19.6685 3.75 20C3.75 20.3315 3.8817 20.6495 4.11612 20.8839C4.35054 21.1183 4.66848 21.25 5 21.25H25C25.3315 21.25 25.6495 21.1183 25.8839 20.8839C26.1183 20.6495 26.25 20.3315 26.25 20C26.25 19.6685 26.1183 19.3505 25.8839 19.1161C25.6495 18.8817 25.3315 18.75 25 18.75ZM20.35 18.75H9.7875C8.97183 17.968 8.34343 17.0117 7.94922 15.9527C7.55501 14.8937 7.4052 13.7593 7.51097 12.6343C7.61675 11.5092 7.97537 10.4226 8.56005 9.45564C9.14474 8.48866 9.94037 7.6663 10.8875 7.04999C11.0313 9.62121 12.1542 12.0398 14.0256 13.8089C15.897 15.578 18.3748 16.5633 20.95 16.5625C21.2789 16.5811 21.6086 16.5811 21.9375 16.5625C21.5433 17.3807 21.0056 18.1215 20.35 18.75V18.75ZM20 23.75H18.75C18.4185 23.75 18.1005 23.8817 17.8661 24.1161C17.6317 24.3505 17.5 24.6685 17.5 25C17.5 25.3315 17.6317 25.6495 17.8661 25.8839C18.1005 26.1183 18.4185 26.25 18.75 26.25H20C20.3315 26.25 20.6495 26.1183 20.8839 25.8839C21.1183 25.6495 21.25 25.3315 21.25 25C21.25 24.6685 21.1183 24.3505 20.8839 24.1161C20.6495 23.8817 20.3315 23.75 20 23.75Z" fill="#FFB84E"/>
</svg>
