<svg width="33" height="9" viewBox="0 0 33 9" fill="none" xmlns="http://www.w3.org/2000/svg">
<path d="M24.921 4.13013C24.921 4.92125 25.1295 5.69461 25.5202 6.35241C25.9109 7.0102 26.4662 7.52289 27.1159 7.82564C27.7656 8.12839 28.4805 8.20761 29.1702 8.05327C29.8599 7.89892 30.4935 7.51796 30.9907 6.95855C31.488 6.39914 31.8266 5.68641 31.9638 4.91049C32.101 4.13456 32.0306 3.3303 31.7615 2.59939C31.4923 1.86849 31.0366 1.24378 30.4519 0.804251C29.8672 0.364725 29.1798 0.130129 28.4765 0.130129C27.5336 0.130129 26.6292 0.551557 25.9624 1.3017C25.2956 2.05185 24.921 3.06926 24.921 4.13013ZM7.14322 4.13013C7.14322 3.339 6.93469 2.56564 6.544 1.90785C6.15331 1.25005 5.59801 0.737361 4.94832 0.43461C4.29862 0.13186 3.58372 0.0526468 2.89401 0.206988C2.2043 0.361328 1.57076 0.742292 1.07351 1.3017C0.576256 1.86111 0.237621 2.57384 0.100429 3.34977C-0.0367627 4.12569 0.0336491 4.92995 0.302761 5.66086C0.571872 6.39176 1.0276 7.01648 1.6123 7.456C2.19701 7.89553 2.88444 8.13012 3.58767 8.13012C4.53066 8.13012 5.43502 7.7087 6.10182 6.95855C6.76862 6.20841 7.14322 5.19099 7.14322 4.13013ZM19.5877 4.13013C19.5877 3.339 19.3791 2.56564 18.9884 1.90785C18.5978 1.25005 18.0424 0.737361 17.3928 0.43461C16.7431 0.13186 16.0282 0.0526468 15.3385 0.206988C14.6487 0.361328 14.0152 0.742292 13.5179 1.3017C13.0207 1.86111 12.6821 2.57384 12.5449 3.34977C12.4077 4.12569 12.4781 4.92995 12.7472 5.66086C13.0163 6.39176 13.472 7.01648 14.0567 7.456C14.6415 7.89553 15.3289 8.13012 16.0321 8.13012C16.9751 8.13012 17.8795 7.7087 18.5463 6.95855C19.2131 6.20841 19.5877 5.19099 19.5877 4.13013Z" fill="#C4C4C4"/>
</svg>
