<svg width="36" height="35" viewBox="0 0 36 35" fill="none" xmlns="http://www.w3.org/2000/svg">
<path d="M28.6366 16.0417H19.8866V7.29171C19.8866 6.90493 19.733 6.534 19.4595 6.26051C19.186 5.98702 18.815 5.83337 18.4283 5.83337C18.0415 5.83337 17.6706 5.98702 17.3971 6.26051C17.1236 6.534 16.9699 6.90493 16.9699 7.29171V16.0417H8.21993C7.83316 16.0417 7.46222 16.1954 7.18873 16.4688C6.91524 16.7423 6.7616 17.1133 6.7616 17.5C6.7616 17.8868 6.91524 18.2577 7.18873 18.5312C7.46222 18.8047 7.83316 18.9584 8.21993 18.9584H16.9699V27.7084C16.9699 28.0951 17.1236 28.4661 17.3971 28.7396C17.6706 29.0131 18.0415 29.1667 18.4283 29.1667C18.815 29.1667 19.186 29.0131 19.4595 28.7396C19.733 28.4661 19.8866 28.0951 19.8866 27.7084V18.9584H28.6366C29.0234 18.9584 29.3943 18.8047 29.6678 18.5312C29.9413 18.2577 30.0949 17.8868 30.0949 17.5C30.0949 17.1133 29.9413 16.7423 29.6678 16.4688C29.3943 16.1954 29.0234 16.0417 28.6366 16.0417Z" fill="white" fill-opacity="0.67"/>
</svg>
