<svg width="30" height="30" viewBox="0 0 30 30" fill="none" xmlns="http://www.w3.org/2000/svg">
<path d="M24.875 15.825C24.6746 15.5969 24.5641 15.3036 24.5641 15C24.5641 14.6964 24.6746 14.4031 24.875 14.175L26.475 12.375C26.6513 12.1783 26.7608 11.9309 26.7877 11.6681C26.8147 11.4054 26.7577 11.1408 26.625 10.9125L24.125 6.58749C23.9936 6.35939 23.7936 6.17859 23.5534 6.07085C23.3133 5.96311 23.0452 5.93394 22.7875 5.98749L20.4375 6.46249C20.1385 6.52428 19.8272 6.47448 19.5624 6.32249C19.2975 6.17051 19.0975 5.92684 19 5.63749L18.2375 3.34999C18.1536 3.10171 17.9939 2.88607 17.7808 2.73354C17.5677 2.58101 17.312 2.49931 17.05 2.49999H12.05C11.7774 2.48576 11.5077 2.56115 11.2819 2.71463C11.0562 2.86812 10.887 3.09126 10.8 3.34999L10.1 5.63749C10.0025 5.92684 9.80246 6.17051 9.53763 6.32249C9.27281 6.47448 8.96151 6.52428 8.66249 6.46249L6.24999 5.98749C6.00568 5.95297 5.75662 5.99152 5.53418 6.09829C5.31174 6.20506 5.12587 6.37528 4.99999 6.58749L2.49999 10.9125C2.36394 11.1383 2.30277 11.4013 2.32522 11.664C2.34767 11.9267 2.4526 12.1755 2.62499 12.375L4.21249 14.175C4.41289 14.4031 4.52341 14.6964 4.52341 15C4.52341 15.3036 4.41289 15.5969 4.21249 15.825L2.62499 17.625C2.4526 17.8244 2.34767 18.0733 2.32522 18.336C2.30277 18.5986 2.36394 18.8617 2.49999 19.0875L4.99999 23.4125C5.13136 23.6406 5.33139 23.8214 5.57156 23.9291C5.81172 24.0369 6.07977 24.066 6.33749 24.0125L8.68749 23.5375C8.98651 23.4757 9.29781 23.5255 9.56263 23.6775C9.82746 23.8295 10.0275 24.0731 10.125 24.3625L10.8875 26.65C10.9745 26.9087 11.1437 27.1319 11.3694 27.2853C11.5952 27.4388 11.8649 27.5142 12.1375 27.5H17.1375C17.3995 27.5007 17.6552 27.419 17.8683 27.2664C18.0814 27.1139 18.2411 26.8983 18.325 26.65L19.0875 24.3625C19.185 24.0731 19.385 23.8295 19.6499 23.6775C19.9147 23.5255 20.226 23.4757 20.525 23.5375L22.875 24.0125C23.1327 24.066 23.4008 24.0369 23.6409 23.9291C23.8811 23.8214 24.0811 23.6406 24.2125 23.4125L26.7125 19.0875C26.8452 18.8591 26.9022 18.5946 26.8752 18.3319C26.8483 18.0691 26.7388 17.8217 26.5625 17.625L24.875 15.825ZM23.0125 17.5L24.0125 18.625L22.4125 21.4L20.9375 21.1C20.0372 20.916 19.1007 21.0689 18.3057 21.5297C17.5108 21.9906 16.9127 22.7273 16.625 23.6L16.15 25H12.95L12.5 23.575C12.2123 22.7023 11.6142 21.9656 10.8192 21.5047C10.0243 21.0439 9.08777 20.891 8.18749 21.075L6.71249 21.375L5.08749 18.6125L6.08749 17.4875C6.70244 16.8 7.04241 15.9099 7.04241 14.9875C7.04241 14.0651 6.70244 13.175 6.08749 12.4875L5.08749 11.3625L6.68749 8.61249L8.16249 8.91249C9.06277 9.09652 9.99928 8.94359 10.7942 8.48274C11.5892 8.02189 12.1873 7.28519 12.475 6.41249L12.95 4.99999H16.15L16.625 6.42499C16.9127 7.29769 17.5108 8.03439 18.3057 8.49524C19.1007 8.95609 20.0372 9.10902 20.9375 8.92499L22.4125 8.62499L24.0125 11.4L23.0125 12.525C22.4044 13.2109 22.0687 14.0958 22.0687 15.0125C22.0687 15.9291 22.4044 16.814 23.0125 17.5ZM14.55 9.99999C13.5611 9.99999 12.5944 10.2932 11.7721 10.8426C10.9499 11.3921 10.309 12.1729 9.93059 13.0866C9.55216 14.0002 9.45314 15.0055 9.64607 15.9754C9.83899 16.9453 10.3152 17.8363 11.0145 18.5355C11.7137 19.2348 12.6046 19.711 13.5745 19.9039C14.5444 20.0968 15.5498 19.9978 16.4634 19.6194C17.377 19.241 18.1579 18.6001 18.7073 17.7778C19.2567 16.9556 19.55 15.9889 19.55 15C19.55 13.6739 19.0232 12.4021 18.0855 11.4645C17.1478 10.5268 15.8761 9.99999 14.55 9.99999ZM14.55 17.5C14.0555 17.5 13.5722 17.3534 13.1611 17.0787C12.7499 16.804 12.4295 16.4135 12.2403 15.9567C12.0511 15.4999 12.0016 14.9972 12.098 14.5123C12.1945 14.0273 12.4326 13.5819 12.7822 13.2322C13.1319 12.8826 13.5773 12.6445 14.0623 12.548C14.5472 12.4516 15.0499 12.5011 15.5067 12.6903C15.9635 12.8795 16.354 13.1999 16.6287 13.6111C16.9034 14.0222 17.05 14.5055 17.05 15C17.05 15.663 16.7866 16.2989 16.3178 16.7678C15.8489 17.2366 15.213 17.5 14.55 17.5Z" fill="#C4C4C4"/>
</svg>
