<svg width="30" height="30" viewBox="0 0 30 30" fill="none" xmlns="http://www.w3.org/2000/svg">
<path d="M22.575 13.675C22.9029 13.6736 23.2172 13.5434 23.45 13.3125L24.3375 12.425C24.4684 12.3129 24.5746 12.175 24.6497 12.02C24.7247 11.8649 24.7668 11.696 24.7735 11.5238C24.7801 11.3517 24.7511 11.18 24.6883 11.0196C24.6255 10.8592 24.5301 10.7135 24.4083 10.5917C24.2865 10.4699 24.1408 10.3745 23.9804 10.3117C23.82 10.2489 23.6483 10.2199 23.4762 10.2265C23.304 10.2332 23.1351 10.2753 22.98 10.3503C22.825 10.4254 22.6871 10.5316 22.575 10.6625L21.75 11.55C21.5172 11.7842 21.3865 12.101 21.3865 12.4312C21.3865 12.7615 21.5172 13.0783 21.75 13.3125C21.9704 13.5317 22.2645 13.6609 22.575 13.675V13.675ZM15.5 10.75C15.8315 10.75 16.1495 10.6183 16.3839 10.3839C16.6183 10.1495 16.75 9.83152 16.75 9.5V8.25C16.75 7.91848 16.6183 7.60054 16.3839 7.36612C16.1495 7.1317 15.8315 7 15.5 7C15.1685 7 14.8505 7.1317 14.6161 7.36612C14.3817 7.60054 14.25 7.91848 14.25 8.25V9.5C14.25 9.83152 14.3817 10.1495 14.6161 10.3839C14.8505 10.6183 15.1685 10.75 15.5 10.75ZM5.5 18.25H4.25C3.91848 18.25 3.60054 18.3817 3.36612 18.6161C3.1317 18.8505 3 19.1685 3 19.5C3 19.8315 3.1317 20.1495 3.36612 20.3839C3.60054 20.6183 3.91848 20.75 4.25 20.75H5.5C5.83152 20.75 6.14946 20.6183 6.38388 20.3839C6.6183 20.1495 6.75 19.8315 6.75 19.5C6.75 19.1685 6.6183 18.8505 6.38388 18.6161C6.14946 18.3817 5.83152 18.25 5.5 18.25ZM7.55 13.3125C7.78283 13.5434 8.09708 13.6736 8.425 13.675C8.58951 13.676 8.75259 13.6444 8.90488 13.5822C9.05718 13.52 9.1957 13.4284 9.3125 13.3125C9.54531 13.0783 9.67599 12.7615 9.67599 12.4312C9.67599 12.101 9.54531 11.7842 9.3125 11.55L8.425 10.6625C8.18587 10.4577 7.87828 10.3507 7.56368 10.3629C7.24909 10.375 6.95066 10.5054 6.72805 10.728C6.50543 10.9507 6.37501 11.2491 6.36286 11.5637C6.35071 11.8783 6.45772 12.1859 6.6625 12.425L7.55 13.3125ZM26.75 18.25H25.5C25.1685 18.25 24.8505 18.3817 24.6161 18.6161C24.3817 18.8505 24.25 19.1685 24.25 19.5C24.25 19.8315 24.3817 20.1495 24.6161 20.3839C24.8505 20.6183 25.1685 20.75 25.5 20.75H26.75C27.0815 20.75 27.3995 20.6183 27.6339 20.3839C27.8683 20.1495 28 19.8315 28 19.5C28 19.1685 27.8683 18.8505 27.6339 18.6161C27.3995 18.3817 27.0815 18.25 26.75 18.25ZM14.25 27H10.5C10.1685 27 9.85054 27.1317 9.61612 27.3661C9.3817 27.6005 9.25 27.9185 9.25 28.25C9.25 28.5815 9.3817 28.8995 9.61612 29.1339C9.85054 29.3683 10.1685 29.5 10.5 29.5H14.25C14.5815 29.5 14.8995 29.3683 15.1339 29.1339C15.3683 28.8995 15.5 28.5815 15.5 28.25C15.5 27.9185 15.3683 27.6005 15.1339 27.3661C14.8995 27.1317 14.5815 27 14.25 27ZM23 22H21.9C22.2157 21.2044 22.3769 20.3559 22.375 19.5C22.375 17.6766 21.6507 15.928 20.3614 14.6386C19.072 13.3493 17.3234 12.625 15.5 12.625C13.6766 12.625 11.928 13.3493 10.6386 14.6386C9.34933 15.928 8.625 17.6766 8.625 19.5C8.62309 20.3559 8.7843 21.2044 9.1 22H8C7.66848 22 7.35054 22.1317 7.11612 22.3661C6.8817 22.6005 6.75 22.9185 6.75 23.25C6.75 23.5815 6.8817 23.8995 7.11612 24.1339C7.35054 24.3683 7.66848 24.5 8 24.5H23C23.3315 24.5 23.6495 24.3683 23.8839 24.1339C24.1183 23.8995 24.25 23.5815 24.25 23.25C24.25 22.9185 24.1183 22.6005 23.8839 22.3661C23.6495 22.1317 23.3315 22 23 22ZM19.0625 22H11.9375C11.4123 21.2719 11.1282 20.3977 11.125 19.5C11.125 18.3397 11.5859 17.2269 12.4064 16.4064C13.2269 15.5859 14.3397 15.125 15.5 15.125C16.6603 15.125 17.7731 15.5859 18.5936 16.4064C19.4141 17.2269 19.875 18.3397 19.875 19.5C19.8718 20.3977 19.5877 21.2719 19.0625 22ZM20.5 27H19.25C18.9185 27 18.6005 27.1317 18.3661 27.3661C18.1317 27.6005 18 27.9185 18 28.25C18 28.5815 18.1317 28.8995 18.3661 29.1339C18.6005 29.3683 18.9185 29.5 19.25 29.5H20.5C20.8315 29.5 21.1495 29.3683 21.3839 29.1339C21.6183 28.8995 21.75 28.5815 21.75 28.25C21.75 27.9185 21.6183 27.6005 21.3839 27.3661C21.1495 27.1317 20.8315 27 20.5 27Z" fill="#FFB84E"/>
</svg>
