<svg width="142" height="287" viewBox="0 0 142 287" fill="none" xmlns="http://www.w3.org/2000/svg">
<path d="M141.596 81.5034C141.596 70.8002 139.765 60.2019 136.207 50.3134C132.649 40.425 127.434 31.4401 120.86 23.8718C114.286 16.3035 106.481 10.3 97.8913 6.20408C89.3016 2.10815 80.0953 -4.67851e-07 70.798 0C61.5007 4.67851e-07 52.2944 2.10815 43.7048 6.20408C35.1152 10.3 27.3105 16.3035 20.7363 23.8718C14.1621 31.4401 8.94711 40.425 5.38918 50.3134C1.83124 60.2019 -8.12798e-07 70.8003 0 81.5034H14.41C14.41 72.9787 15.8685 64.5375 18.7022 56.6617C21.536 48.7859 25.6895 41.6298 30.9256 35.6019C36.1617 29.574 42.3779 24.7925 49.2192 21.5302C56.0606 18.268 63.393 16.5889 70.798 16.5889C78.203 16.5889 85.5355 18.268 92.3768 21.5302C99.2181 24.7925 105.434 29.574 110.67 35.6019C115.907 41.6298 120.06 48.7859 122.894 56.6617C125.728 64.5375 127.186 72.9787 127.186 81.5034H141.596Z" fill="#A6A6A6" fill-opacity="0.24"/>
<path d="M2.36986e-05 204.585C2.36986e-05 215.288 1.83126 225.887 5.3892 235.775C8.94714 245.664 14.1621 254.649 20.7363 262.217C27.3105 269.785 35.1152 275.789 43.7048 279.885C52.2944 283.98 61.5007 286.089 70.798 286.089C80.0954 286.089 89.3017 283.98 97.8913 279.885C106.481 275.789 114.286 269.785 120.86 262.217C127.434 254.649 132.649 245.664 136.207 235.775C139.765 225.887 141.596 215.288 141.596 204.585H127.186C127.186 213.11 125.728 221.551 122.894 229.427C120.06 237.303 115.907 244.459 110.67 250.487C105.434 256.515 99.2181 261.296 92.3768 264.558C85.5355 267.821 78.203 269.5 70.798 269.5C63.3931 269.5 56.0606 267.821 49.2193 264.558C42.378 261.296 36.1618 256.515 30.9257 250.487C25.6895 244.459 21.536 237.303 18.7023 229.427C15.8685 221.551 14.41 213.11 14.41 204.585H2.36986e-05Z" fill="#A6A6A6" fill-opacity="0.24"/>
<path d="M14.3824 144.994L127.28 144.17" stroke="#A6A6A6" stroke-opacity="0.24" stroke-width="14.4"/>
<line x1="7.2" y1="81.463" x2="7.2" y2="204.563" stroke="#A6A6A6" stroke-opacity="0.24" stroke-width="14.4"/>
<line x1="134.2" y1="81.46" x2="134.2" y2="204.56" stroke="#A6A6A6" stroke-opacity="0.24" stroke-width="14.4"/>
</svg>
