<svg width="35" height="42" viewBox="0 0 35 42" fill="none" xmlns="http://www.w3.org/2000/svg">
<defs>
<filter id="filter0_b_468_8063" x="-24.1523" y="-24.1675" width="74.7715" height="90.3118" filterUnits="userSpaceOnUse" color-interpolation-filters="sRGB">
<feFlood flood-opacity="0" result="BackgroundImageFix"/>
<feGaussianBlur in="BackgroundImage" stdDeviation="12.5"/>
<feComposite in2="SourceAlpha" operator="in" result="effect1_backgroundBlur_468_8063"/>
<feBlend mode="normal" in="SourceGraphic" in2="effect1_backgroundBlur_468_8063" result="shape"/>
</filter>
<linearGradient id="paint0_linear_468_8063" x1="11.8711" y1="27.0632" x2="34.0763" y2="27.1573" gradientUnits="userSpaceOnUse">
<stop stop-color="#47C2FF"/>
<stop offset="1" stop-color="#63CBFE" stop-opacity="0.65"/>
</linearGradient>
</defs>
<path d="M34.6215 27.861C34.6215 34.4705 28.9511 39.8286 21.9563 39.8286C14.9615 39.8286 11.8711 33.3717 11.8711 26.7622C11.8711 20.1527 14.9615 15.8934 21.9563 15.8934C28.9511 15.8934 34.6215 21.2515 34.6215 27.861Z" fill="url(#paint0_linear_468_8063)"/>
<g filter="url(#filter0_b_468_8063)">
<path d="M0.847656 6.59135C0.847656 3.41084 3.57626 0.83252 6.94217 0.83252H19.5244C22.8903 0.83252 25.6189 3.41084 25.6189 6.59135V35.3855C25.6189 38.566 22.8903 41.1443 19.5244 41.1443H6.94217C3.57627 41.1443 0.847656 38.566 0.847656 35.3855V6.59135Z" fill="#EDEDED" fill-opacity="0.37"/>
</g>
<path d="M10.4803 9.93511C10.4803 11.3715 9.24805 12.5359 7.72797 12.5359C6.20788 12.5359 4.97561 11.3715 4.97561 9.93511C4.97561 8.49875 6.20788 7.33435 7.72797 7.33435C9.24805 7.33435 10.4803 8.49875 10.4803 9.93511Z" fill="white"/>
<path d="M20.1136 9.93516C20.1136 11.3715 18.8813 12.5359 17.3612 12.5359C15.8411 12.5359 14.6089 11.3715 14.6089 9.93516C14.6089 8.4988 15.8411 7.3344 17.3612 7.3344C18.8813 7.3344 20.1136 8.4988 20.1136 9.93516Z" fill="white"/>
<path d="M10.4803 20.3382C10.4803 21.7746 9.24803 22.939 7.72795 22.939C6.20786 22.939 4.97559 21.7746 4.97559 20.3382C4.97559 18.9019 6.20786 17.7375 7.72795 17.7375C9.24803 17.7375 10.4803 18.9019 10.4803 20.3382Z" fill="white"/>
<path d="M20.1136 20.3382C20.1136 21.7746 18.8813 22.939 17.3612 22.939C15.8411 22.939 14.6089 21.7746 14.6089 20.3382C14.6089 18.9019 15.8411 17.7375 17.3612 17.7375C18.8813 17.7375 20.1136 18.9019 20.1136 20.3382Z" fill="white"/>
<path d="M10.4803 30.7412C10.4803 32.1775 9.24803 33.3419 7.72795 33.3419C6.20786 33.3419 4.97559 32.1775 4.97559 30.7412C4.97559 29.3048 6.20786 28.1404 7.72795 28.1404C9.24803 28.1404 10.4803 29.3048 10.4803 30.7412Z" fill="white"/>
<path d="M20.1136 30.7412C20.1136 32.1775 18.8813 33.3419 17.3612 33.3419C15.8411 33.3419 14.6089 32.1775 14.6089 30.7412C14.6089 29.3048 15.8411 28.1404 17.3612 28.1404C18.8813 28.1404 20.1136 29.3048 20.1136 30.7412Z" fill="white"/>
</svg>
