<svg width="64" height="70" viewBox="0 0 64 70" fill="none" xmlns="http://www.w3.org/2000/svg">
<path d="M37.9905 14.4054C36.658 12.5136 34.9785 10.894 33.0478 9.63907C31.1172 8.38411 28.9733 7.51834 26.7384 7.09119C24.5035 6.66405 22.2215 6.6839 20.0227 7.14961C17.8238 7.61532 15.7512 8.51776 13.9231 9.80542C12.0951 11.0931 10.5473 12.7407 9.36834 14.6543C8.18934 16.5679 7.40216 18.7099 7.05173 20.9581C6.7013 23.2062 6.79449 25.5165 7.32598 27.757C7.85747 29.9975 8.81685 32.1243 10.1493 34.0161L12.9827 32.0203C11.9214 30.5136 11.1573 28.8197 10.734 27.0352C10.3107 25.2507 10.2364 23.4107 10.5155 21.6201C10.7946 19.8295 11.4216 18.1235 12.3606 16.5994C13.2997 15.0753 14.5324 13.763 15.9884 12.7374C17.4444 11.7118 19.0951 10.9931 20.8464 10.6222C22.5977 10.2512 24.4153 10.2354 26.1953 10.5756C27.9752 10.9158 29.6828 11.6054 31.2205 12.6049C32.7582 13.6045 34.0959 14.8944 35.1572 16.4011L37.9905 14.4054Z" fill="white"/>
<path d="M25.3452 55.5951C26.6777 57.4868 28.3572 59.1064 30.2878 60.3614C32.2185 61.6163 34.3624 62.4821 36.5973 62.9093C38.8322 63.3364 41.1142 63.3166 43.313 62.8508C45.5119 62.3851 47.5845 61.4827 49.4126 60.195C51.2406 58.9074 52.7884 57.2597 53.9674 55.3462C55.1463 53.4326 55.9335 51.2906 56.284 49.0424C56.6344 46.7942 56.5412 44.4839 56.0097 42.2434C55.4782 40.0029 54.5188 37.8761 53.1863 35.9844L50.353 37.9801C51.4143 39.4868 52.1784 41.1808 52.6017 42.9652C53.025 44.7497 53.0993 46.5898 52.8201 48.3804C52.541 50.1709 51.9141 51.877 50.975 53.4011C50.036 54.9252 48.8033 56.2375 47.3473 57.263C45.8913 58.2886 44.2405 59.0074 42.4892 59.3783C40.7379 59.7492 38.9204 59.765 37.1404 59.4248C35.3604 59.0846 33.6529 58.3951 32.1152 57.3955C30.5775 56.396 29.2398 55.1061 28.1785 53.5994L25.3452 55.5951Z" fill="white"/>
<line x1="11.4478" y1="32.8263" x2="26.8191" y2="54.6488" stroke="white" stroke-width="3.5"/>
<line x1="36.3746" y1="15.085" x2="52.0049" y2="37.2753" stroke="white" stroke-width="3.5"/>
<path d="M20.7543 43.0708L43.1575 27.0711" stroke="white" stroke-width="3.5"/>
</svg>
