<svg width="40" height="40" viewBox="0 0 40 40" fill="none" xmlns="http://www.w3.org/2000/svg">
<path d="M20 3.33333C16.7675 3.33947 13.6065 4.28551 10.902 6.05623C8.19763 7.82694 6.06649 10.3459 4.76824 13.3063C3.46998 16.2667 3.06063 19.5407 3.59004 22.7296C4.11946 25.9185 5.5648 28.8846 7.75 31.2667V31.2667C9.31071 32.9584 11.2049 34.3085 13.3132 35.232C15.4216 36.1555 17.6983 36.6322 20 36.6322C22.3017 36.6322 24.5784 36.1555 26.6868 35.232C28.7951 34.3085 30.6893 32.9584 32.25 31.2667V31.2667C34.4352 28.8846 35.8805 25.9185 36.41 22.7296C36.9394 19.5407 36.53 16.2667 35.2318 13.3063C33.9335 10.3459 31.8024 7.82694 29.098 6.05623C26.3935 4.28551 23.2325 3.33947 20 3.33333V3.33333ZM20 33.3333C16.5474 33.3281 13.2315 31.9838 10.75 29.5833C11.5034 27.7492 12.7851 26.1805 14.4321 25.0765C16.0791 23.9725 18.0172 23.383 20 23.383C21.9828 23.383 23.9209 23.9725 25.5679 25.0765C27.2149 26.1805 28.4966 27.7492 29.25 29.5833C26.7685 31.9838 23.4526 33.3281 20 33.3333ZM16.6667 16.6667C16.6667 16.0074 16.8622 15.3629 17.2284 14.8148C17.5947 14.2666 18.1153 13.8394 18.7244 13.5871C19.3335 13.3348 20.0037 13.2688 20.6503 13.3974C21.2969 13.526 21.8908 13.8435 22.357 14.3096C22.8232 14.7758 23.1407 15.3698 23.2693 16.0164C23.3979 16.663 23.3319 17.3332 23.0796 17.9423C22.8273 18.5514 22.4001 19.072 21.8519 19.4382C21.3037 19.8045 20.6593 20 20 20C19.1159 20 18.2681 19.6488 17.643 19.0237C17.0179 18.3986 16.6667 17.5507 16.6667 16.6667ZM31.5167 26.6667C30.0276 24.1196 27.7357 22.1384 25 21.0333C25.8486 20.0711 26.4015 18.8844 26.5925 17.6157C26.7834 16.347 26.6041 15.0502 26.0763 13.8808C25.5484 12.7115 24.6943 11.7193 23.6165 11.0233C22.5387 10.3273 21.283 9.95708 20 9.95708C18.717 9.95708 17.4613 10.3273 16.3835 11.0233C15.3057 11.7193 14.4516 12.7115 13.9237 13.8808C13.3959 15.0502 13.2166 16.347 13.4075 17.6157C13.5985 18.8844 14.1514 20.0711 15 21.0333C12.2643 22.1384 9.97245 24.1196 8.48333 26.6667C7.29657 24.6452 6.66953 22.3441 6.66667 20C6.66667 16.4638 8.07143 13.0724 10.5719 10.5719C13.0724 8.07142 16.4638 6.66666 20 6.66666C23.5362 6.66666 26.9276 8.07142 29.4281 10.5719C31.9286 13.0724 33.3333 16.4638 33.3333 20C33.3305 22.3441 32.7034 24.6452 31.5167 26.6667V26.6667Z" fill="#C4C4C4"/>
</svg>
